<svg xmlns="http://www.w3.org/2000/svg" viewBox="0 0 100 100">
  <!-- teal circle background -->
  <circle cx="50" cy="50" r="50" fill="#1D8F6E"/>
  <!-- house body -->
  <rect x="20" y="52" width="60" height="44" rx="3" fill="white"/>
  <!-- roof -->
  <polygon points="12,54 50,18 88,54" fill="white"/>
  <!-- chimney -->
  <rect x="62" y="24" width="10" height="18" rx="2" fill="white"/>
  <!-- door -->
  <rect x="36" y="70" width="28" height="26" rx="3" fill="#1D8F6E"/>
  <!-- heart window in door — coral red -->
  <path d="M50 88 C50 88 38 80 38 72 C38 67.5 41.5 65 45 67.5 C47 69 49 71.5 50 73.5 C51 71.5 53 69 55 67.5 C58.5 65 62 67.5 62 72 C62 80 50 88 50 88Z" fill="#E8533A"/>
</svg>